<?xml version="1.0" encoding="UTF-8"?> <svg xmlns="http://www.w3.org/2000/svg" width="512" height="174" viewBox="0 0 512 174" fill="none"><path d="M7.69708 3.90527L10.1103 167.788L144.159 155.12L142.486 126.254L40.7416 127.932L38.6936 10.0475L7.69708 3.90527Z" fill="#59C3EF"></path><path d="M52.3775 14.1602L53.4766 48.6787L108.94 56.211L110.589 112.019L140.967 112.399L137.554 31.5324L52.3775 14.1602Z" fill="#438DCB"></path><path d="M214.91 21.7441L195.895 77.182H189.157L171.592 21.7441H178.657L192.526 69.9647L207.52 21.7441H214.91ZM222.996 30.848C222.465 30.858 221.937 30.761 221.443 30.5628C220.949 30.3647 220.5 30.0693 220.122 29.6942C219.732 29.3176 219.425 28.8631 219.22 28.3601C219.015 27.8571 218.918 27.3167 218.935 26.7737C218.925 26.2344 219.023 25.6986 219.223 25.198C219.424 24.6975 219.722 24.2422 220.101 23.8592C220.479 23.4762 220.931 23.1732 221.428 22.9681C221.925 22.7631 222.459 22.66 222.996 22.6651C223.538 22.654 224.077 22.7519 224.581 22.953C225.084 23.1541 225.542 23.4544 225.928 23.8361C226.31 24.2178 226.613 24.6713 226.82 25.1707C227.027 25.6701 227.133 26.2056 227.133 26.7463C227.133 27.287 227.027 27.8225 226.82 28.3219C226.613 28.8213 226.31 29.2748 225.928 29.6565C225.546 30.0431 225.089 30.3479 224.586 30.5527C224.082 30.7574 223.543 30.8579 223 30.848H222.996ZM225.952 77.182H219.679V37.8325H225.952V77.182ZM234.827 74.8367L236.892 70.3344C239.723 71.6678 242.776 72.463 245.896 72.6797C251.412 72.6797 252.689 69.4682 252.791 66.8216C252.894 64.1751 251.085 60.4911 245.439 58.8168C242.785 58.227 240.392 56.794 238.614 54.7307C236.837 52.6674 235.771 50.0839 235.575 47.3643C235.893 44.4649 237.227 41.7727 239.338 39.7666C241.449 37.7605 244.201 36.5705 247.105 36.4082C250.865 36.5719 254.566 37.4151 258.027 38.8973L255.648 43.7899C253.271 42.5175 250.663 41.7374 247.979 41.4959C244.565 41.4959 241.527 42.9887 241.681 47.3643C241.835 51.7399 244.78 52.5547 249.504 54.3385C252.151 55.044 254.503 56.5829 256.213 58.7289C257.923 60.8749 258.901 63.5148 259.004 66.2601C258.986 68.5074 258.286 70.696 256.998 72.5346C255.71 74.3731 253.893 75.7745 251.791 76.552C249.725 77.1471 247.599 77.5066 245.453 77.6237C241.746 77.5726 238.107 76.6173 234.851 74.8401L234.827 74.8367ZM271.008 30.848C270.477 30.858 269.949 30.761 269.455 30.5628C268.961 30.3647 268.512 30.0693 268.134 29.6942C267.744 29.3176 267.437 28.8631 267.232 28.3601C267.027 27.8571 266.93 27.3167 266.946 26.7737C266.937 26.2344 267.035 25.6986 267.235 25.198C267.436 24.6975 267.734 24.2422 268.113 23.8592C268.491 23.4762 268.943 23.1732 269.44 22.9681C269.937 22.7631 270.471 22.66 271.008 22.6651C271.55 22.654 272.089 22.7519 272.592 22.953C273.096 23.1541 273.554 23.4544 273.94 23.8361C274.322 24.2178 274.625 24.6713 274.832 25.1707C275.039 25.6701 275.145 26.2056 275.145 26.7463C275.145 27.287 275.039 27.8225 274.832 28.3219C274.625 28.8213 274.322 29.2748 273.94 29.6565C273.557 30.0435 273.1 30.3486 272.596 30.5534C272.092 30.7581 271.552 30.8584 271.008 30.848V30.848ZM274.029 77.182H267.752V37.8325H274.036L274.029 77.182ZM300.172 77.182C297.6 77.3007 295.031 76.8704 292.637 75.9196C290.243 74.9688 288.077 73.5191 286.283 71.6663C282.702 67.6671 280.836 62.413 281.091 57.0433C280.925 54.2319 281.318 51.4154 282.245 48.7571C283.173 46.0988 284.617 43.6517 286.495 41.5576C288.411 39.6663 290.697 38.1947 293.209 37.2358C295.722 36.2769 298.405 35.8517 301.09 35.9871C303.627 35.8449 306.165 36.2558 308.529 37.1914C310.893 38.127 313.027 39.5651 314.784 41.4069C318.27 45.6049 320.03 50.9771 319.706 56.4305C319.975 61.9605 318.071 67.3756 314.402 71.5122C312.568 73.4156 310.351 74.9057 307.899 75.8833C305.447 76.8608 302.815 77.3036 300.179 77.182H300.172ZM300.633 41.2905C298.829 41.2084 297.03 41.5376 295.371 42.2534C293.712 42.9692 292.236 44.0529 291.055 45.423C288.543 48.6676 287.29 52.7163 287.529 56.8174C287.305 60.8104 288.576 64.7434 291.092 67.8454C292.286 69.1833 293.761 70.239 295.411 70.9364C297.061 71.6338 298.844 71.9556 300.633 71.8786C302.392 71.9839 304.152 71.6816 305.776 70.9953C307.4 70.309 308.845 69.257 309.999 67.9207C312.375 64.6691 313.535 60.6829 313.276 56.6599C313.537 52.6015 312.378 48.5789 309.999 45.2861C308.852 43.9403 307.409 42.8793 305.785 42.1861C304.161 41.493 302.398 41.1864 300.636 41.2905H300.633ZM359.874 76.4904H353.594V54.0509C353.594 45.6992 350.555 41.5233 344.477 41.5233C342.995 41.4925 341.525 41.7958 340.176 42.4109C338.827 43.026 337.632 43.9372 336.681 45.0772C334.581 47.582 333.486 50.7808 333.609 54.0509V76.4938H327.328V37.1409H333.612V43.6735H333.766C335.012 41.3565 336.875 39.4325 339.148 38.1163C341.421 36.8002 344.014 36.1436 346.638 36.2199C348.488 36.105 350.34 36.4218 352.048 37.1453C353.756 37.8689 355.273 38.9795 356.482 40.39C358.976 43.8885 360.182 48.1469 359.895 52.4383L359.874 76.4904Z" fill="black"></path><path d="M212.674 147.465C208.101 149.662 203.065 150.719 197.997 150.546C194.63 150.697 191.269 150.13 188.136 148.882C185.004 147.633 182.171 145.733 179.825 143.305C175.139 138.119 172.686 131.287 172.998 124.296C172.837 120.546 173.434 116.802 174.753 113.289C176.072 109.776 178.087 106.568 180.674 103.856C183.209 101.285 186.245 99.2667 189.593 97.9259C192.94 96.5852 196.528 95.9512 200.13 96.0636C204.413 95.9256 208.679 96.6642 212.668 98.2343V104.815C208.805 102.694 204.462 101.605 200.059 101.655C197.296 101.55 194.543 102.037 191.983 103.083C189.422 104.129 187.114 105.71 185.211 107.722C181.263 112.172 179.218 118.001 179.517 123.95C179.23 129.567 181.139 135.073 184.839 139.299C186.624 141.197 188.794 142.689 191.203 143.676C193.612 144.662 196.203 145.119 198.803 145.017C203.662 145.142 208.462 143.921 212.674 141.487V147.465ZM234.199 150.546C231.714 150.662 229.233 150.253 226.917 149.344C224.6 148.435 222.5 147.047 220.754 145.27C219.04 143.386 217.713 141.182 216.849 138.783C215.985 136.385 215.601 133.839 215.719 131.291C215.56 128.596 215.94 125.897 216.839 123.353C217.737 120.808 219.134 118.47 220.948 116.476C222.813 114.662 225.03 113.253 227.461 112.336C229.892 111.419 232.485 111.014 235.08 111.145C237.531 111.007 239.983 111.398 242.27 112.292C244.557 113.186 246.626 114.563 248.337 116.329C251.712 120.329 253.423 125.478 253.116 130.709C253.377 136.009 251.536 141.197 247.996 145.14C246.206 146.967 244.052 148.393 241.674 149.326C239.297 150.259 236.749 150.677 234.199 150.553V150.546ZM234.643 116.209C232.899 116.132 231.161 116.449 229.556 117.137C227.951 117.825 226.521 118.866 225.372 120.184C222.943 123.277 221.729 127.155 221.959 131.086C221.745 134.913 222.977 138.681 225.41 141.638C226.573 142.921 228.003 143.933 229.599 144.6C231.195 145.268 232.918 145.575 234.646 145.5C236.346 145.599 238.046 145.308 239.616 144.648C241.187 143.988 242.587 142.977 243.708 141.692C246.004 138.592 247.128 134.775 246.879 130.921C247.13 127.033 246.007 123.181 243.708 120.04C242.59 118.749 241.191 117.732 239.619 117.069C238.048 116.406 236.345 116.114 234.643 116.216V116.209ZM291.645 150.546H285.57V129.086C285.57 121.097 282.627 117.103 276.743 117.103C275.312 117.071 273.892 117.359 272.586 117.948C271.281 118.536 270.123 119.409 269.196 120.503C267.163 122.887 266.097 125.95 266.209 129.086V150.553H260.127V112.892H266.209V119.157H266.356C267.576 116.932 269.386 115.088 271.585 113.83C273.784 112.571 276.287 111.947 278.818 112.025C280.605 111.913 282.394 112.215 284.046 112.906C285.699 113.598 287.17 114.661 288.348 116.014C290.757 119.35 291.925 123.428 291.649 127.538L291.645 150.546ZM362.243 149.663H356.168V143.706H356.007C354.916 145.856 353.231 147.646 351.152 148.861C349.073 150.075 346.689 150.663 344.286 150.553C335.236 150.553 330.711 145.21 330.711 134.523V112.025H336.756V133.571C336.756 141.512 339.822 145.483 345.955 145.483C347.34 145.518 348.715 145.245 349.982 144.683C351.249 144.12 352.375 143.282 353.28 142.23C355.269 139.855 356.295 136.817 356.154 133.718V112.025H362.236L362.243 149.663ZM378.129 150.546H372.05V94.8174H378.132L378.129 150.546ZM406.388 149.369C404.623 150.226 402.674 150.631 400.715 150.546C394.064 150.546 390.738 146.87 390.738 139.518V117.247H384.211V112.111H390.738V102.908L396.82 100.96V112.101H406.378V117.236H396.82V138.464C396.654 140.358 397.109 142.256 398.117 143.866C398.664 144.447 399.335 144.895 400.081 145.175C400.826 145.455 401.626 145.56 402.418 145.483C403.843 145.517 405.239 145.078 406.388 144.233V149.369ZM416.792 106.29C416.278 106.301 415.768 106.208 415.291 106.019C414.813 105.83 414.378 105.547 414.01 105.188C413.633 104.83 413.336 104.396 413.137 103.914C412.939 103.433 412.845 102.915 412.86 102.394C412.846 101.871 412.942 101.351 413.14 100.867C413.338 100.383 413.634 99.946 414.01 99.5833C414.375 99.2186 414.809 98.9313 415.287 98.7384C415.765 98.5455 416.277 98.4509 416.792 98.4603C417.315 98.4497 417.835 98.5436 418.322 98.7364C418.809 98.9291 419.253 99.217 419.628 99.5833C419.998 99.9461 420.292 100.379 420.492 100.858C420.693 101.336 420.796 101.85 420.796 102.369C420.796 102.887 420.693 103.401 420.492 103.879C420.292 104.358 419.998 104.791 419.628 105.154C419.257 105.526 418.814 105.819 418.328 106.016C417.841 106.213 417.32 106.31 416.795 106.301L416.792 106.29ZM419.758 150.543H413.692V112.881H419.775L419.758 150.543ZM462.182 150.543H456.103V129.086C456.103 121.097 453.161 117.103 447.276 117.103C445.845 117.071 444.426 117.359 443.12 117.948C441.814 118.536 440.656 119.409 439.729 120.503C437.696 122.887 436.63 125.95 436.743 129.086V150.553H430.66V112.892H436.743V119.157H436.903C438.124 116.932 439.933 115.088 442.132 113.83C444.331 112.571 446.835 111.947 449.365 112.025C451.152 111.913 452.941 112.215 454.593 112.906C456.246 113.598 457.718 114.661 458.895 116.014C461.305 119.35 462.473 123.428 462.196 127.538L462.182 150.543ZM502.893 146.647C502.893 160.47 496.218 167.381 482.867 167.381C478.613 167.479 474.396 166.572 470.555 164.734V158.715C474.272 160.911 478.483 162.125 482.795 162.245C492.141 162.245 496.814 157.319 496.814 147.465V143.356H496.667C495.395 145.367 493.679 147.057 491.651 148.296C489.624 149.534 487.34 150.289 484.975 150.5C482.61 150.712 480.229 150.375 478.015 149.515C475.801 148.656 473.814 147.297 472.207 145.544C469.169 141.735 467.632 136.939 467.886 132.068C467.595 126.591 469.244 121.187 472.542 116.812C474.084 114.944 476.036 113.46 478.247 112.477C480.457 111.495 482.865 111.04 485.28 111.149C487.554 111.021 489.819 111.523 491.827 112.599C493.836 113.676 495.51 115.286 496.667 117.253H496.814V112.025H502.897L502.893 146.647ZM496.811 132.64V127.097C496.833 125.676 496.572 124.264 496.045 122.945C495.518 121.626 494.734 120.426 493.739 119.414C492.763 118.374 491.581 117.551 490.267 117C488.954 116.449 487.54 116.182 486.117 116.216C484.429 116.14 482.748 116.469 481.212 117.176C479.677 117.883 478.332 118.947 477.29 120.28C474.979 123.604 473.856 127.613 474.102 131.657C473.921 135.266 475.008 138.825 477.174 141.713C478.137 142.932 479.372 143.907 480.779 144.561C482.186 145.215 483.727 145.53 485.277 145.479C486.843 145.531 488.402 145.235 489.841 144.612C491.28 143.989 492.564 143.055 493.602 141.877C495.798 139.32 496.946 136.023 496.814 132.65L496.811 132.64Z" fill="black"></path><path d="M300.093 148.624L302.107 144.314C304.871 145.591 307.844 146.351 310.879 146.556C316.252 146.556 317.494 143.475 317.593 140.948C317.692 138.422 315.935 134.892 310.425 133.289C307.861 132.746 305.539 131.386 303.808 129.411C302.076 127.437 301.027 124.954 300.817 122.333C301.151 119.535 302.462 116.947 304.518 115.026C306.573 113.106 309.241 111.978 312.047 111.843C315.707 112.003 319.309 112.814 322.686 114.239L320.362 118.927C318.04 117.707 315.501 116.961 312.89 116.732C309.569 116.732 306.606 118.16 306.746 122.347C306.886 126.534 309.763 127.315 314.364 129.02C316.924 129.671 319.207 131.133 320.873 133.188C322.54 135.243 323.503 137.781 323.618 140.428C323.588 142.592 322.899 144.696 321.644 146.457C320.388 148.217 318.626 149.551 316.593 150.278C314.579 150.848 312.508 151.193 310.419 151.305C306.813 151.252 303.272 150.333 300.093 148.624V148.624Z" fill="black"></path></svg> 