<svg xmlns="http://www.w3.org/2000/svg" width="422" height="254"><defs><linearGradient id="b" x1=".5" x2=".5" y2="1" gradientUnits="objectBoundingBox"><stop offset="0" stop-color="#cea2e2"/><stop offset="1" stop-color="#7052d5"/></linearGradient><filter id="a" x="0" y="0" width="422" height="254" filterUnits="userSpaceOnUse"><feOffset dy="3"/><feGaussianBlur stdDeviation="3" result="blur"/><feFlood flood-opacity=".161"/><feComposite operator="in" in2="blur"/><feComposite in="SourceGraphic"/></filter></defs><g data-name="Group 494"><g filter="url(#a)"><rect data-name="Rectangle 197" width="404" height="236" rx="28" transform="translate(9 6)" fill="#fff"/></g><g data-name="Group 493"><path data-name="Path 806" d="M209.948 73.935a14.967 14.967 0 10-14.968-14.967 14.984 14.984 0 0014.968 14.967zm0-24.953a9.985 9.985 0 11-9.985 9.985 10 10 0 019.985-9.985z" fill="#1e2235"/><path data-name="Path 807" d="M3704.92 1294.464a2.491 2.491 0 10-4.982 0v3.986a2.491 2.491 0 004.982 0z" transform="translate(-3492.6 -1214.325)" fill="url(#b)"/><path data-name="Path 808" d="M3702.429 1306.752a2.491 2.491 0 00-2.491 2.491v24.58a2.491 2.491 0 104.982 0v-24.58a2.491 2.491 0 00-2.491-2.491z" transform="translate(-3492.6 -1217.811)" fill="url(#b)"/><path data-name="Path 809" d="M235.652 145.914h-6.133l2.378-19.616 3.15-4.815a9.1 9.1 0 001.487-5.371l-1.024-25.944a2.567 2.567 0 00-.028-.283 17.344 17.344 0 00-12.79-14.141l-4.357-1.132a2.491 2.491 0 00-1.252 4.822l4.357 1.131a12.366 12.366 0 019.1 9.947l1.018 25.8a4.14 4.14 0 01-.677 2.445l-11.941 18.25a2.609 2.609 0 00-.132.227 2.991 2.991 0 01-5.506-2.288l11.255-19.585a2.5 2.5 0 00.332-1.238l.029-20.163a2.491 2.491 0 00-2.488-2.495 2.492 2.492 0 00-2.492 2.487l-.028 19.5-9.591 16.69-9.592-16.69-.029-19.5a2.491 2.491 0 00-2.491-2.487 2.492 2.492 0 00-2.488 2.495l.03 20.163a2.5 2.5 0 00.331 1.238l11.256 19.585a2.991 2.991 0 01-5.506 2.288 2.435 2.435 0 00-.132-.227l-11.942-18.253a4.15 4.15 0 01-.677-2.445l1.019-25.8a12.367 12.367 0 019.1-9.947l4.357-1.131a2.491 2.491 0 00-1.252-4.822l-4.357 1.132a17.345 17.345 0 00-12.79 14.141 2.827 2.827 0 00-.028.283l-1.024 25.944a9.093 9.093 0 001.486 5.37l3.186 4.871 2.371 19.561h-4.472a6.671 6.671 0 00-6.664 6.664v24.271a6.671 6.671 0 006.664 6.664h9.17l1.73 18.877a2.491 2.491 0 002.477 2.264c.077 0 .154 0 .231-.011a2.491 2.491 0 002.253-2.708l-1.696-18.419h7.829v18.861a2.491 2.491 0 004.983 0v-18.861h7.169l-1.443 18.474a2.492 2.492 0 002.29 2.677c.066.005.131.008.2.008a2.492 2.492 0 002.481-2.3l1.474-18.861h9.835a6.671 6.671 0 006.664-6.664v-24.271a6.671 6.671 0 00-6.67-6.662zm-12.48-6.279l2.566-3.922-1.238 10.2h-4.289l-.515-2.923a7.929 7.929 0 003.476-3.353zm-15.387 3.49a2.664 2.664 0 015.057 0 7.959 7.959 0 001.923.588l.387 2.2h-9.12l.765-2.423a7.938 7.938 0 00.988-.364zm-12.86-7.357l2.53 3.867a7.933 7.933 0 004.177 3.669l-.824 2.609h-4.653zm42.409 41.079a1.683 1.683 0 01-1.682 1.681h-48.988a1.683 1.683 0 01-1.682-1.681v-24.271a1.683 1.683 0 011.682-1.681h48.988a1.683 1.683 0 011.682 1.681z" fill="#1e2235"/></g></g></svg>