<svg xmlns="http://www.w3.org/2000/svg" width="422" height="254"><defs><linearGradient id="b" x1=".5" x2=".5" y2="1" gradientUnits="objectBoundingBox"><stop offset="0" stop-color="#cea2e2"/><stop offset="1" stop-color="#7052d5"/></linearGradient><filter id="a" x="0" y="0" width="422" height="254" filterUnits="userSpaceOnUse"><feOffset dy="3"/><feGaussianBlur stdDeviation="3" result="blur"/><feFlood flood-opacity=".161"/><feComposite operator="in" in2="blur"/><feComposite in="SourceGraphic"/></filter></defs><g data-name="Group 495"><g filter="url(#a)"><rect data-name="Rectangle 198" width="404" height="236" rx="28" transform="translate(9 6)" fill="#fff"/></g><g data-name="Group 491"><path data-name="Path 797" d="M134 67.305a2.508 2.508 0 002.509 2.509h3.32v98.247a2.509 2.509 0 002.509 2.509h75.76a2.509 2.509 0 100-5.018h-73.25V69.814h126.414v69.425a2.51 2.51 0 005.019 0V69.814h3.32a2.509 2.509 0 002.509-2.509v-9.8a2.509 2.509 0 00-2.509-2.509H136.509A2.508 2.508 0 00134 57.505" fill="#1e2235"/><path data-name="Path 798" d="M1627.166 1269.687h138.074v4.778h-138.074z" transform="translate(-1488.148 -1209.669)" fill="url(#b)"/><path data-name="Path 799" d="M245.575 129.603a15.159 15.159 0 10-15.159-15.159 15.176 15.176 0 0015.159 15.159zm0-25.3a10.14 10.14 0 11-10.14 10.14 10.152 10.152 0 0110.14-10.139z" fill="#1e2235"/><path data-name="Path 800" d="M285.39 156.667l-25.61-20.73a9.185 9.185 0 00-1.67-1.07 15.033 15.033 0 00-2.38-1.145 28.706 28.706 0 00-20.283.077l-1.88.718-20.961 6.166-18.76-6.068a9.2 9.2 0 10-5.661 17.509l21.464 6.941a9.182 9.182 0 002.831.446 8.343 8.343 0 002.484-.375l10.874-3.226v35.168a2.51 2.51 0 105.019 0v-38.53a2.509 2.509 0 00-3.223-2.406l-14.092 4.18a3.418 3.418 0 01-1.062.169 4.167 4.167 0 01-1.287-.2l-21.464-6.941a4.182 4.182 0 012.573-7.959l19.5 6.306a2.515 2.515 0 001.48.02l21.8-6.413c.063-.019.125-.039.186-.063l1.973-.753a23.7 23.7 0 0116.741-.063 10.057 10.057 0 011.643.8c.063.039.128.073.194.105a4.12 4.12 0 01.809.508l25.61 20.729a4.166 4.166 0 01.848 5.555l-12.709 19.218a4.2 4.2 0 01-3.517 1.878 4.293 4.293 0 01-2.293-.666 4.446 4.446 0 01-1.094-6l5.595-8.64 3.525-5.334a2.509 2.509 0 00-.515-3.334l-7.688-6.223a2.509 2.509 0 00-4.088 1.95v17.244l-1.041 1.608a9.467 9.467 0 001.041 11.626v1.625a2.509 2.509 0 004.815.991 9.347 9.347 0 001.743.166 9.207 9.207 0 007.7-4.129l12.709-19.218a9.166 9.166 0 00-1.879-12.217zm-20.076 7.567l1.829 1.481-1.829 2.769z" fill="#1e2235"/><path data-name="Path 801" d="M1764.644 1372.812a2.509 2.509 0 00-2.509 2.509v1.673a2.509 2.509 0 005.019 0v-1.673a2.51 2.51 0 00-2.51-2.509z" transform="translate(-1519.237 -1233.423)" fill="url(#b)"/><path data-name="Path 802" d="M1764.644 1383.245a2.509 2.509 0 00-2.509 2.509v26.766a2.509 2.509 0 105.019 0v-26.766a2.509 2.509 0 00-2.51-2.509z" transform="translate(-1519.237 -1235.826)" fill="url(#b)"/><path data-name="Path 803" d="M235.741 78.633a2.509 2.509 0 00-3.527.4l-24.057 30.136-11.7-16.223a2.509 2.509 0 00-4.249.286l-15.3 28.684-8.418-14.921a2.508 2.508 0 00-4.2-.267l-9.937 13.33a2.51 2.51 0 104.024 3l7.634-10.24 8.77 15.548a2.51 2.51 0 002.186 1.276h.029a2.511 2.511 0 002.185-1.328l15.556-29.167 11.275 15.639a2.51 2.51 0 001.974 1.041 2.541 2.541 0 002.023-.944l26.12-32.72a2.508 2.508 0 00-.388-3.53z" fill="#1e2235"/></g></g></svg>