<svg xmlns="http://www.w3.org/2000/svg" width="422" height="254"><defs><linearGradient id="b" x1=".5" x2=".5" y2="1" gradientUnits="objectBoundingBox"><stop offset="0" stop-color="#cea2e2"/><stop offset="1" stop-color="#7052d5"/></linearGradient><filter id="a" x="0" y="0" width="422" height="254" filterUnits="userSpaceOnUse"><feOffset dy="3"/><feGaussianBlur stdDeviation="3" result="blur"/><feFlood flood-opacity=".161"/><feComposite operator="in" in2="blur"/><feComposite in="SourceGraphic"/></filter></defs><g data-name="Group 496"><g filter="url(#a)"><rect data-name="Rectangle 199" width="404" height="236" rx="28" transform="translate(9 6)" fill="#fff"/></g><g data-name="Group 492"><path data-name="Path 804" d="M296.352 159.903l-44.277-64.807a2.671 2.671 0 00-2.205-1.164h-1.412a9.094 9.094 0 00-1.265-3.736L239.18 76.97a13.339 13.339 0 00-5.16-4.872l-9.745-5.165a16.209 16.209 0 10-27.114.315l-9.149 4.849a13.335 13.335 0 00-5.161 4.872l-8.013 13.226a9.1 9.1 0 00-1.264 3.736h-1.6a2.671 2.671 0 00-2.221 1.187l-43.3 64.807a2.67 2.67 0 002.221 4.154h46.014a2.67 2.67 0 000-5.341h-41.022l39.73-59.465h1.258a9.1 9.1 0 002.575 2.92l17.073 12.511a7.024 7.024 0 008.708-11.011l-5.258-4.421h27.146l-5.766 4.329a2.042 2.042 0 00-.136.11 7.025 7.025 0 008.729 10.994l17.074-12.512a9.1 9.1 0 002.575-2.92h1.085l40.628 59.465h-43.544a2.67 2.67 0 000 5.341h48.6a2.67 2.67 0 002.2-4.177zM210.621 47.341a10.876 10.876 0 11-10.875 10.876 10.888 10.888 0 0110.875-10.876zm31.021 50.545l-17.076 12.512a1.692 1.692 0 01-2.118-.1 1.683 1.683 0 01-.024-2.484l14.158-10.632a2.67 2.67 0 00.469-3.82l-8.816-10.849a2.671 2.671 0 10-4.145 3.369l6.913 8.507a2.66 2.66 0 00-1.487-.452H192.84a2.644 2.644 0 00-1.134.261l-.622-.523 6.2-7.216a2.671 2.671 0 10-4.051-3.481l-7.959 9.264a2.67 2.67 0 00.307 3.784l13.966 11.742a1.683 1.683 0 01.027 2.53 1.691 1.691 0 01-2.118.1l-17.073-12.512a3.7 3.7 0 01-.982-4.921l8.013-13.226a8 8 0 013.094-2.921l10.5-5.566a16.1 16.1 0 0019.54-.244l10.964 5.81a8 8 0 013.093 2.921l8.013 13.226a3.7 3.7 0 01-.975 4.92z" fill="#1e2235"/><path data-name="Path 805" d="M1170.88 1393.148l-1.689-6.1a2.71 2.71 0 00-.147-.4 19.1 19.1 0 00-9.853-9.605l-1.758-.754a16.214 16.214 0 10-25.587.18l-1.338.573a19.1 19.1 0 00-9.853 9.605 2.81 2.81 0 00-.147.4l-1.553 5.611a21.5 21.5 0 00-11.377 18.952v20.308a2.671 2.671 0 105.342 0v-20.308a16.162 16.162 0 0116.144-16.144h30.84a16.163 16.163 0 0116.144 16.144v20.308a2.67 2.67 0 105.341 0v-20.308a21.493 21.493 0 00-10.509-18.462zm-26.308-37.578a10.876 10.876 0 11-10.876 10.876 10.888 10.888 0 0110.876-10.875zm-15.508 34.553a21.473 21.473 0 00-3.968.374l.5-1.81a13.77 13.77 0 017.016-6.739l3.686-1.579a16.067 16.067 0 0016.777-.14l4.012 1.719a13.77 13.77 0 017.016 6.739l.546 1.971a21.469 21.469 0 00-4.744-.534z" transform="translate(-933.951 -1228.738)" fill="url(#b)"/></g></g></svg>